<svg width="119" height="108" viewBox="0 0 119 108" fill="none" xmlns="http://www.w3.org/2000/svg">
<path fill-rule="evenodd" clip-rule="evenodd" d="M59.51 87.5033L78 81.5L59.5 87.5L59.51 87.5033Z" fill="#00A33B"/>
<path d="M59.5 1L26 33L46.2451 43.2491L59.3956 49.9065L106 73.5V91L59.5 75L78 81.5L59.51 87.5033L118 106.5V66.5L72.6923 43.2169L59.5 36.4375L46 29.5L59.5 17L67.875 9L59.5 1Z" fill="black"/>
<path d="M59.5 75L12.5 91V73.5L59.3956 49.9065L46.2451 43.2491L1 66.5V106.5L59.5 87.5L78 81.5L59.5 75Z" fill="black" fill-opacity="0.8"/>
<path d="M59.5 17L73 29.5L59.5 36.4375L72.6923 43.2169L93 33L67.875 9L59.5 17Z" fill="black" fill-opacity="0.8"/>
<path d="M59.5 75L106 91V73.5L59.3956 49.9065M59.5 75L12.5 91V73.5L59.3956 49.9065M59.5 75L78 81.5M59.5 17C64.7721 21.8816 73 29.5 73 29.5M59.5 17C54.2279 21.8816 46 29.5 46 29.5M59.5 17L67.875 9M59.5 17L46 29.5M59.5 17L73 29.5M73 29.5L59.5 36.4375M1 106.5V66.5L46.2451 43.2491M1 106.5L59.5 87.5M1 106.5L59.51 87.5033M59.5 87.5L78 81.5M59.5 87.5L59.51 87.5033M46 29.5L59.5 36.4375M46.2451 43.2491L26 33L59.5 1L67.875 9M46.2451 43.2491L59.3956 49.9065M59.5 36.4375L72.6923 43.2169M72.6923 43.2169L93 33L67.875 9M72.6923 43.2169L118 66.5V106.5L59.51 87.5033M78 81.5L59.51 87.5033" stroke="white"/>
</svg>
